<svg width="60" height="50" viewBox="0 0 60 50" fill="none" xmlns="http://www.w3.org/2000/svg">
  <rect width="60" height="50" rx="12" fill="#F0F5F8"/>
  <path d="M39.8524 13.7139C37.2209 11.0427 33.7216 9.57153 30 9.57153C26.2783 9.57153 22.779 11.0427 20.1476 13.7139C17.516 16.3849 16.0667 19.9368 16.0667 23.7144C16.0667 27.492 17.516 31.0439 20.1476 33.7149C22.779 36.3861 26.2783 37.8572 30 37.8572C31.8609 37.8572 33.6662 37.4893 35.3349 36.7877C37.0036 36.0862 38.5363 35.0507 39.8524 33.7149C42.484 31.0439 43.9333 27.492 43.9333 23.7144C43.9333 19.9368 42.484 16.3849 39.8524 13.7139ZM34.7811 27.3956C36.878 25.5261 39.4916 24.4539 42.2797 24.3204C42.1506 27.0546 41.142 29.7534 39.2564 31.9382L34.7811 27.3956ZM42.251 22.6619V22.6628C40.7049 22.7323 39.1954 23.0583 37.7518 23.6378C36.2304 24.2483 34.8455 25.1162 33.6245 26.2214L31.1544 23.7144L39.2564 15.4906C41.0393 17.5562 42.0382 20.0813 42.251 22.6619ZM29.9245 31.5828C29.3539 33.0479 29.0326 34.5805 28.9642 36.1496C28.9637 36.1496 28.9635 36.1496 28.9631 36.1496C26.4208 35.9336 23.9331 34.9197 21.898 33.11L30 24.8862L32.4698 27.3934C31.3811 28.6328 30.526 30.0385 29.9245 31.5828ZM25.2187 20.0332C23.122 21.9023 20.5076 22.9733 17.7203 23.108C17.8494 20.3738 18.8577 17.6754 20.7436 15.4906L25.2187 20.0332ZM21.898 14.3188C24.0504 12.4042 26.7095 11.3804 29.403 11.2494C29.2712 14.0799 28.2152 16.733 26.3734 18.8612L21.898 14.3188ZM30.0755 15.8458C30.6461 14.3807 30.9673 12.8479 31.0358 11.2785H31.0373C33.579 11.4952 36.0669 12.5084 38.102 14.3188L30 22.5424L27.5301 20.0354C28.6187 18.7958 29.4738 17.3903 30.0755 15.8458ZM17.749 24.7669C17.749 24.7666 17.749 24.7666 17.749 24.7666C19.2949 24.6969 20.8046 24.3702 22.248 23.791C23.7696 23.1805 25.1543 22.3125 26.3755 21.2074L28.8453 23.7144L20.7436 31.9382C18.9604 29.8725 17.9618 27.3472 17.749 24.7669ZM30.597 36.1789C30.7288 33.3485 31.7848 30.6958 33.6266 28.5674L38.102 33.11C35.9495 35.0242 33.2909 36.0477 30.597 36.1789Z" fill="#77959D" stroke="#77959D" stroke-width="0.4"/>
</svg>
