<svg width="60" height="50" viewBox="0 0 60 50" fill="none" xmlns="http://www.w3.org/2000/svg">
  <rect width="60" height="50" rx="12" fill="#F0F5F8"/>
  <rect x="18.5566" y="14.395" width="18.9695" height="22.6482" fill="#F0F5F8"/>
  <path fill-rule="evenodd" clip-rule="evenodd" d="M41.8303 10C42.6998 10 43.4047 10.7018 43.4047 11.5676L43.4047 33.6112C43.4047 34.477 42.6999 35.1788 41.8304 35.1788H39.2307V36.8167C39.2307 37.6824 38.5258 38.3842 37.6563 38.3842H19.1188C18.2493 38.3842 17.5444 37.6824 17.5444 36.8167V14.7729C17.5444 13.9072 18.2493 13.2054 19.1188 13.2054H21.718V11.5676C21.718 10.7018 22.4229 10 23.2924 10H41.8303ZM36.5385 36.7211C36.9733 36.7211 37.3257 36.3702 37.3257 35.9373V15.6523C37.3257 15.2194 36.9733 14.8685 36.5385 14.8685H20.2246C19.7898 14.8685 19.4374 15.2194 19.4374 15.6523V35.9373C19.4374 36.3702 19.7898 36.7211 20.2246 36.7211H36.5385ZM40.5986 33.5157C41.0333 33.5157 41.3858 33.1648 41.3858 32.7319V12.4027C41.3858 11.9698 41.0333 11.6189 40.5986 11.6189H24.6049C24.1702 11.6189 23.8177 11.9698 23.8177 12.4027V13.2054H37.6563C38.5258 13.2054 39.2306 13.9072 39.2306 14.7729V33.5157H40.5986Z" fill="#77959D"/>
  <path d="M30.2099 20.7913C31.1194 20.7913 31.899 21.0889 32.4646 21.6522C33.0844 22.2693 33.3985 23.1412 33.3985 24.2435C33.3985 25.2974 32.8219 26.5141 31.685 27.8598C30.6505 29.0843 29.5164 29.9995 29.1933 30.2509C28.8543 30.5146 28.448 30.6466 28.0416 30.6466C27.6353 30.6466 27.2289 30.5146 26.89 30.2509C26.5669 29.9995 25.4328 29.0843 24.3983 27.8598C23.2614 26.5141 22.6848 25.2974 22.6848 24.2435C22.6848 23.1412 22.9989 22.2693 23.6187 21.6522C24.1842 21.0889 24.9639 20.7913 25.8734 20.7913C26.8304 20.7913 27.5454 21.1597 28.0548 21.6362C28.5666 21.1607 29.2764 20.7913 30.2099 20.7913ZM30.2099 22.8232C29.3673 22.8232 29.0604 23.6514 29.0191 23.7754C28.8976 24.2169 28.5004 24.5241 28.0418 24.5241C28.0361 24.5241 28.0303 24.5239 28.0247 24.5239C27.5588 24.5161 27.1642 24.1969 27.0558 23.746C27.0043 23.5752 26.7287 22.8232 25.8734 22.8232C25.3058 22.8232 24.7255 22.9918 24.7255 24.2435C24.7255 25.3126 26.3933 27.2584 28.0416 28.5674C29.6899 27.2584 31.3578 25.3128 31.3578 24.2435C31.3578 22.9918 30.7774 22.8232 30.2099 22.8232Z" fill="#77959D"/>
</svg>
