<svg width="60" height="50" viewBox="0 0 60 50" fill="none" xmlns="http://www.w3.org/2000/svg">
  <rect width="60" height="50" rx="12" fill="#F0F5F8"/>
  <g opacity="0.9">
    <path d="M34.9712 22.6281C34.8429 22.6281 34.7155 22.6315 34.5886 22.6375C34.2743 20.986 34.2762 18.8359 35.2773 16.4168C36.2253 16.1365 37.235 15.9289 38.3065 15.7961L38.1059 14.1288C35.4953 14.4525 33.1751 15.2037 31.1965 16.3617C31.2148 14.9232 30.7868 13.7142 29.9164 12.7562C27.3589 9.94134 21.8912 10.5149 21.6595 10.5407L20.754 10.6416L20.9399 11.5468C20.9874 11.7782 22.1427 17.233 25.5715 18.8303C26.2013 19.1237 26.8593 19.2702 27.5428 19.2702C27.5805 19.2702 27.6184 19.2689 27.6563 19.268C27.2216 19.7607 26.8187 20.2842 26.4503 20.8387C26.0402 21.4558 25.7033 22.0635 25.4267 22.6382C25.2946 22.6317 25.1619 22.6283 25.0289 22.6283C20.543 22.6283 16.8936 26.3326 16.8936 30.8859C16.8936 35.4388 20.543 39.1429 25.0289 39.1429C26.8426 39.1429 28.5828 38.5353 30.003 37.4192C31.3782 38.4992 33.102 39.1429 34.9714 39.1429C39.457 39.1429 43.1063 35.4386 43.1063 30.8856C43.1063 26.3323 39.4569 22.6281 34.9712 22.6281ZM26.2643 17.3049C24.3298 16.4059 23.2591 13.6324 22.8121 12.154C24.5343 12.127 27.3483 12.4074 28.7001 13.895C29.4122 14.6787 29.6708 15.7225 29.4863 17.0775C28.2753 17.6743 27.2182 17.7482 26.2643 17.3049ZM27.8222 21.7777C29.1774 19.7379 30.9973 18.1974 33.2588 17.1667C32.6054 19.4105 32.6743 21.3889 32.9489 22.8864C31.8632 23.1694 30.8647 23.675 30.0029 24.3518C29.149 23.6808 28.1794 23.1937 27.1475 22.9119C27.3429 22.5432 27.5664 22.1626 27.8222 21.7777ZM25.0288 37.4632C21.4555 37.4631 18.5483 34.5126 18.5483 30.8858C18.5483 27.357 21.3001 24.4687 24.7398 24.3147C24.323 25.5369 24.2151 26.3783 24.2077 26.44L25.85 26.6456C25.8518 26.6313 25.9664 25.7385 26.4461 24.4664C27.2869 24.657 28.0819 25.0164 28.787 25.5272C27.5714 26.9705 26.8363 28.8424 26.8363 30.8855C26.8363 32.9287 27.5714 34.8006 28.787 36.2438C27.6951 37.0348 26.3879 37.4632 25.0288 37.4632ZM34.9712 37.4631C31.398 37.4631 28.491 34.5124 28.491 30.8855C28.491 27.8205 30.567 25.2386 33.3667 24.512C33.8831 26.0659 34.5402 26.9926 34.5725 27.0376L35.9095 26.048C35.8979 26.0317 35.4548 25.399 35.0524 24.3089C38.5884 24.3532 41.4516 27.2861 41.4516 30.8855C41.4515 34.5124 38.5445 37.4631 34.9712 37.4631Z" fill="#77959D" stroke="#77959D" stroke-width="0.37626"/>
  </g>
</svg>
