<svg width="12" height="12" viewBox="0 0 12 12" fill="none" xmlns="http://www.w3.org/2000/svg">
<path fill-rule="evenodd" clip-rule="evenodd" d="M11.6928 10.2251C12.0982 10.6305 12.0982 11.2877 11.6928 11.693C11.2874 12.0984 10.6302 12.0984 10.2249 11.693L6.09963 7.56781L1.97439 11.693C1.56903 12.0984 0.911818 12.0984 0.50646 11.693C0.101102 11.2877 0.101102 10.6305 0.50646 10.2251L4.6317 6.09988L0.506166 1.97434C0.100809 1.56898 0.100809 0.911769 0.506167 0.506411C0.911525 0.101053 1.56874 0.101053 1.9741 0.506411L6.09963 4.63195L10.2252 0.506411C10.6305 0.101053 11.2877 0.101053 11.6931 0.506411C12.0985 0.911769 12.0985 1.56898 11.6931 1.97434L7.56756 6.09988L11.6928 10.2251Z" fill="#1BA3C4"/>
</svg>
