<svg width="60" height="50" viewBox="0 0 60 50" fill="none" xmlns="http://www.w3.org/2000/svg">
  <rect width="60" height="50" rx="12" fill="#FF9E2C" fill-opacity="0.1"/>
  <path d="M43.7312 21.4148V21.3978L43.715 21.3926C42.6867 21.0665 41.9507 20.1896 41.9507 19.1638C41.9507 17.8623 43.1358 16.7991 44.5983 16.7991C46.0607 16.7991 47.2458 17.8623 47.2458 19.1638C47.2458 20.1896 46.5098 21.0665 45.4815 21.3926L45.4653 21.3978V21.4148V21.4171V21.4196V21.4222V21.425V21.428V21.4311V21.4343V21.4378V21.4413V21.4451V21.4489V21.453V21.4572V21.4615V21.466V21.4706V21.4754V21.4804V21.4854V21.4907V21.4961V21.5016V21.5073V21.5131V21.5191V21.5252V21.5314V21.5378V21.5444V21.5511V21.5579V21.5649V21.572V21.5792V21.5866V21.5941V21.6018V21.6096V21.6175V21.6256V21.6338V21.6421V21.6506V21.6592V21.6679V21.6768V21.6858V21.6949V21.7042V21.7136V21.7231V21.7328V21.7425V21.7524V21.7625V21.7726V21.7829V21.7933V21.8038V21.8145V21.8253V21.8361V21.8472V21.8583V21.8696V21.8809V21.8924V21.904V21.9158V21.9276V21.9396V21.9517V21.9639V21.9762V21.9886V22.0011V22.0138V22.0265V22.0394V22.0524V22.0655V22.0787V22.092V22.1054V22.1189V22.1325V22.1463V22.1601V22.1741V22.1881V22.2023V22.2165V22.2309V22.2454V22.2599V22.2746V22.2893V22.3042V22.3192V22.3342V22.3494V22.3646V22.38V22.3954V22.411V22.4266V22.4423V22.4582V22.4741V22.4901V22.5062V22.5224V22.5386V22.555V22.5715V22.588V22.6046V22.6214V22.6382V22.655V22.672V22.6891V22.7062V22.7234V22.7407V22.7581V22.7756V22.7932V22.8108V22.8285V22.8463V22.8641V22.8821V22.9001V22.9182V22.9364V22.9546V22.9729V22.9913V23.0098V23.0283V23.0469V23.0656V23.0844V23.1032V23.1221V23.141V23.1601V23.1792V23.1983V23.2176V23.2368V23.2562V23.2756V23.2951V23.3147V23.3343V23.3539V23.3737V23.3935V23.4133V23.4332V23.4532V23.4732V23.4933V23.5134V23.5336V23.5539V23.5742V23.5946V23.615V23.6354V23.656V23.6765V23.6972V23.7178V23.7386V23.7593V23.7801V23.801V23.8219V23.8429V23.8639V23.8849V23.906V23.9272V23.9484V23.9696V23.9909V24.0122V24.0335V24.0549V24.0764V24.0978V24.1193V24.1409V24.1625V24.1841V24.2058V24.2274V24.2492V24.2709V24.2927V24.3146V24.3364V24.3583V24.3802V24.4022V24.4242V24.4462V24.4682V24.4903V24.5124V24.5345V24.5566V24.5788V24.601V24.6232V24.6455V24.6677V24.69V24.7123V24.7347V24.757V24.7794V24.8018V24.8242V24.8466V24.869V24.8915V24.914V24.9365V24.959V24.9815V25.004V25.0266V25.0491V25.0717V25.0943V25.1169V25.1395V25.1621V25.1847V25.2073V25.2299V25.2526V25.2752V25.2979V25.3205V25.3432V25.3658V25.3885V25.4112V25.4338V25.4565V25.4792V25.5018V25.5245V25.5471V25.5698V25.5925V25.6151V25.6378V25.6604V25.6831V25.7057V25.7283V25.7509V25.7735V25.7961V25.8187V25.8413V25.8639V25.8865V25.909V25.9315V25.9541V25.9766V25.9991V26.0216V26.044V26.0665V26.0889V26.1113V26.1337V26.1561V26.1785V26.2008V26.2231V26.2454V26.2677V26.2899V26.3122V26.3344V26.3566V26.3787V26.4009V26.423V26.445V26.4671V26.4891V26.5111V26.5331V26.555V26.5769V26.5988V26.6206V26.6424V26.6642V26.686V26.7077V26.7293V26.751V26.7726V26.7941V26.8157V26.8372V26.8586V26.88V26.9014V26.9227V26.944V26.9652V26.9865V27.0076V27.0287V27.0498V27.0708V27.0918V27.1127V27.1336V27.1545V27.1753V27.196V27.2167V27.2374V27.2579V27.2785V27.299V27.3194V27.3398V27.3601V27.3804V27.4006V27.4208V27.4409V27.461V27.481V27.5009V27.5208V27.5406V27.5604V27.5801V27.5997V27.6193V27.6388V27.6582V27.6776V27.6969V27.7162V27.7354V27.7545V27.7736V27.7925V27.8115V27.8303V27.8491V27.8678V27.8865V27.905V27.9235V27.9419V27.9603V27.9786V27.9968V28.0149V28.033V28.0509V28.0688V28.0867V28.1044V28.1221V28.1397V28.1572V28.1746V28.1919V28.2092V28.2264V28.2435V28.2605V28.2774V28.2942V28.311V28.3277V28.3442V28.3607V28.3771V28.3935V28.4097V28.4258V28.4419V28.4578V28.4737V28.4894V28.5051V28.5207V28.5362V28.5516V28.5669V28.5821V28.5972V28.6122V28.6271V28.6419V28.6566V28.6712V28.6857V28.7001V28.7144V28.7286V28.7427V28.7567V28.7706V28.7844V28.7981V28.8117V28.8251V28.8385V28.8517V28.8649V28.8779V28.8908V28.9036V28.9163V28.9289V28.9414V28.9537V28.966V28.9781V28.9901V29.002V29.0138V29.0255V29.037V29.0484V29.0598V29.0709V29.082V29.093V29.1038V29.1145V29.1251V29.1355V29.1459V29.1561V29.1662V29.1761V29.186V29.1957V29.2052V29.2147V29.224V29.2332V29.2422V29.2512V29.26V29.2686V29.2772V29.2856V29.2938V29.302V29.31V29.3178V29.3255V29.3331V29.3406V29.3479V29.355V29.3621V29.369V29.3757V29.3823V29.3888V29.3951V29.4013V29.4073V29.4132V29.4189V29.4245V29.43V29.4353V29.4404V29.4454V29.4503V29.455V29.4596V29.464V29.4682V29.4723V29.4763V29.4801V29.4837V29.4872V29.4882H40.1469H40.1237V29.5115V37.6156H17.0233V22.3477C17.0233 16.6572 22.2022 12.0233 28.5735 12.0233C34.9447 12.0233 40.1237 16.6572 40.1237 22.3477V24.7356V24.7589H40.1469H43.708H43.7312V24.7356V21.4148ZM38.3664 29.5348H38.3896V29.5115V22.3477V22.3244H38.3664H33.0248H33.0015V22.3477V29.5115V29.5348H33.0248H38.3664ZM18.7573 29.5115V29.5348H18.7805H24.1221H24.1454V29.5115V22.3477V22.3244H24.1221H18.7805H18.7573V22.3477V29.5115ZM25.9027 22.3244H25.8794V22.3477V29.5115V29.5348H25.9027H31.2443H31.2675V29.5115V22.3477V22.3244H31.2443H25.9027ZM38.2037 20.779H38.2323L38.2265 20.751C37.3842 16.6683 33.3748 13.5687 28.5735 13.5687C23.7721 13.5687 19.7627 16.6683 18.9204 20.751L18.9147 20.779H18.9432H38.2037ZM18.7573 36.0469V36.0701H18.7805H23.2319H33.9151H38.3664H38.3896V36.0469V31.1034V31.0802H38.3664H18.7805H18.7573V31.1034V36.0469ZM43.708 27.9428H43.7312V27.9195V26.3276V26.3043H43.708H40.1469H40.1237V26.3276V27.9195V27.9428H40.1469H43.708ZM43.6847 19.1638C43.6847 19.6179 44.097 19.983 44.5983 19.983C45.0995 19.983 45.5118 19.6179 45.5118 19.1638C45.5118 18.7097 45.0995 18.3446 44.5983 18.3446C44.097 18.3446 43.6847 18.7097 43.6847 19.1638Z" fill="#FF9E2C" stroke="#FF9E2C" stroke-width="0.0465183"/>
  <mask id="path-3-inside-1_27_13237" fill="white">
  <ellipse cx="21.5732" cy="25.9296" rx="1.23396" ry="1.41888"/>
  </mask>
  <ellipse cx="21.5732" cy="25.9296" rx="1.23396" ry="1.41888" fill="#FF9E2C"/>
  <path d="M21.5409 25.9296C21.5409 26.0259 21.5067 26.083 21.4902 26.102C21.4828 26.1105 21.484 26.1059 21.4997 26.0982C21.5171 26.0898 21.5435 26.0822 21.5732 26.0822V28.6148C23.1143 28.6148 24.0734 27.2408 24.0734 25.9296H21.5409ZM21.5732 26.0822C21.6029 26.0822 21.6293 26.0898 21.6467 26.0982C21.6624 26.1059 21.6636 26.1105 21.6562 26.102C21.6396 26.083 21.6055 26.0259 21.6055 25.9296H19.0729C19.0729 27.2408 20.0321 28.6148 21.5732 28.6148V26.0822ZM21.6055 25.9296C21.6055 25.8334 21.6396 25.7763 21.6562 25.7573C21.6636 25.7487 21.6624 25.7534 21.6467 25.761C21.6293 25.7695 21.6029 25.777 21.5732 25.777V23.2444C20.0321 23.2444 19.0729 24.6185 19.0729 25.9296H21.6055ZM21.5732 25.777C21.5435 25.777 21.5171 25.7695 21.4997 25.761C21.484 25.7534 21.4828 25.7487 21.4902 25.7573C21.5067 25.7763 21.5409 25.8334 21.5409 25.9296H24.0734C24.0734 24.6185 23.1143 23.2444 21.5732 23.2444V25.777Z" fill="#FF9E2C" mask="url(#path-3-inside-1_27_13237)"/>
  <mask id="path-5-inside-2_27_13237" fill="white">
  <ellipse cx="28.5828" cy="25.9296" rx="1.23396" ry="1.41888"/>
  </mask>
  <ellipse cx="28.5828" cy="25.9296" rx="1.23396" ry="1.41888" fill="#FF9E2C"/>
  <path d="M28.5505 25.9296C28.5505 26.0259 28.5164 26.083 28.4999 26.102C28.4924 26.1105 28.4936 26.1059 28.5093 26.0982C28.5268 26.0898 28.5532 26.0822 28.5828 26.0822V28.6148C30.124 28.6148 31.0831 27.2408 31.0831 25.9296H28.5505ZM28.5828 26.0822C28.6125 26.0822 28.6389 26.0898 28.6564 26.0982C28.6721 26.1059 28.6732 26.1105 28.6658 26.102C28.6493 26.083 28.6152 26.0259 28.6152 25.9296H26.0826C26.0826 27.2408 27.0417 28.6148 28.5828 28.6148V26.0822ZM28.6152 25.9296C28.6152 25.8334 28.6493 25.7763 28.6658 25.7573C28.6732 25.7487 28.6721 25.7534 28.6564 25.761C28.6389 25.7695 28.6125 25.777 28.5828 25.777V23.2444C27.0417 23.2444 26.0826 24.6185 26.0826 25.9296H28.6152ZM28.5828 25.777C28.5532 25.777 28.5268 25.7695 28.5093 25.761C28.4936 25.7534 28.4924 25.7487 28.4999 25.7573C28.5164 25.7763 28.5505 25.8334 28.5505 25.9296H31.0831C31.0831 24.6185 30.124 23.2444 28.5828 23.2444V25.777Z" fill="#FF9E2C" mask="url(#path-5-inside-2_27_13237)"/>
  <mask id="path-7-inside-3_27_13237" fill="white">
  <ellipse cx="35.9453" cy="25.9296" rx="1.23396" ry="1.41888"/>
  </mask>
  <ellipse cx="35.9453" cy="25.9296" rx="1.23396" ry="1.41888" fill="#FF9E2C"/>
  <path d="M35.9129 25.9296C35.9129 26.0259 35.8788 26.083 35.8623 26.102C35.8549 26.1105 35.856 26.1059 35.8717 26.0982C35.8892 26.0898 35.9156 26.0822 35.9453 26.0822V28.6148C37.4864 28.6148 38.4455 27.2408 38.4455 25.9296H35.9129ZM35.9453 26.0822C35.9749 26.0822 36.0013 26.0898 36.0188 26.0982C36.0345 26.1059 36.0357 26.1105 36.0282 26.102C36.0117 26.083 35.9776 26.0259 35.9776 25.9296H33.445C33.445 27.2408 34.4041 28.6148 35.9453 28.6148V26.0822ZM35.9776 25.9296C35.9776 25.8334 36.0117 25.7763 36.0282 25.7573C36.0357 25.7487 36.0345 25.7534 36.0188 25.761C36.0013 25.7695 35.9749 25.777 35.9453 25.777V23.2444C34.4041 23.2444 33.445 24.6185 33.445 25.9296H35.9776ZM35.9453 25.777C35.9156 25.777 35.8892 25.7695 35.8717 25.761C35.856 25.7534 35.8549 25.7487 35.8623 25.7573C35.8788 25.7763 35.9129 25.8334 35.9129 25.9296H38.4455C38.4455 24.6185 37.4864 23.2444 35.9453 23.2444V25.777Z" fill="#FF9E2C" mask="url(#path-7-inside-3_27_13237)"/>
</svg>
